<?xml version="1.0" encoding="UTF-8" standalone="no"?>
<svg
   width="6.73in"
   height="2in"
   viewBox="0 0 2019 599.99999"
   version="1.1"
   id="svg3"
   xmlns="http://www.w3.org/2000/svg"
   xmlns:svg="http://www.w3.org/2000/svg">
  <defs
     id="defs7" />
  <path
     id="Selection"
     fill="none"
     stroke="#000000"
     stroke-width="2.79682"
     d="m 1415.1596,345.78229 c 0,33.22621 -5.286,70.36798 -31.0167,94.42062 -34.0932,31.46422 -102.6153,32.47107 -136.5407,0 -22.9619,-21.70332 -30.9608,-52.5802 -31.0168,-83.23334 v -61.53003 c 0,-38.12064 -2.3773,-75.68193 25.6748,-106.16726 36.5545,-39.71483 110.9499,-41.39293 146.8051,0 21.6753,25.00357 26.0943,57.64245 26.0943,89.38635 h -72.7173 c -0.028,-12.78147 0.6153,-22.48643 -7.4116,-33.44996 -13.7603,-18.79463 -32.2473,-14.40362 -42.0641,5.48176 -4.1673,8.47437 -3.6359,18.73869 -3.6639,27.9682 v 72.7173 c 0.4755,35.3518 27.325,52.5802 45.728,27.82835 7.9989,-10.76775 7.3836,-20.80833 7.4116,-33.42199 z M 128.62269,161.19221 h 67.12366 30.76502 c 39.65889,0.47546 67.68301,21.92707 81.61121,58.73321 13.145,34.68056 8.4743,115.56458 5.0902,153.82506 -1.0069,11.439 -7.2158,45.86784 -22.5703,45.47629 -7.9989,-0.22375 -12.5018,-7.2997 -11.6628,-14.76721 l 9.1456,-25.11544 c 4.4749,-14.57143 5.4818,-26.87743 5.5098,-41.95229 v -53.13956 c -0.056,-40.1903 -11.3272,-80.85605 -53.13962,-96.32246 -16.38936,-6.0691 -48.80449,-4.69866 -67.12366,-4.36304 -5.98519,0.11187 -13.34083,-0.11187 -17.89964,4.47491 -5.3699,5.36989 -4.44695,16.38936 -4.47492,23.49328 V 376.5473 c 0.0559,31.77187 10.12449,31.07267 39.15548,30.76502 11.46695,-0.13984 14.068,-0.58734 25.17137,-3.13244 7.80313,-1.78997 15.46641,-3.24431 22.26268,-7.74719 30.23362,-20.02523 22.48643,-63.76748 22.48643,-95.39951 0,-23.80093 4.25116,-50.23087 -12.27804,-69.78064 -20.89224,-24.69592 -48.91637,-12.27804 -62.8725,-20.19304 -7.41157,-4.19523 -10.68385,-11.88648 -14.34768,-19.10227 27.66054,0 70.08829,-3.97149 92.01536,15.07485 12.72552,11.04744 16.61314,27.88429 20.16504,43.65835 3.524,15.57829 2.4892,31.66 2.4892,47.54593 0,33.14231 4.6986,85.66658 -20.50069,110.94983 -14.04004,14.09596 -30.40143,17.61996 -49.4198,17.70386 h -86.7014 z m 299.25969,0 v 153.82507 c 0,31.60406 -3.8876,60.91472 12.6696,89.49822 13.4527,23.26953 41.1132,39.60296 68.4381,35.5196 14.5155,-2.18152 22.934,-8.80998 30.7651,-10.96353 8.5582,-2.34933 20.6125,0.58733 20.6684,11.35509 0.056,9.28544 -16.1935,15.21469 -23.4653,17.50809 -22.5983,7.13189 -56.1881,7.27173 -78.3109,-1.62216 -48.357,-19.40992 -55.8525,-73.16479 -55.9364,-118.92076 V 186.36359 c 0.056,-24.24842 1.0069,-25.08747 25.1714,-25.17138 z m 8.3904,0 h 25.1714 c -5.5377,41.98026 -2.8807,132.23362 -2.7968,178.99644 0.028,25.33919 2.4612,46.81876 25.1714,62.50891 7.1598,4.92241 13.7603,7.27173 22.3745,5.06225 27.7445,-7.13189 36.3307,-37.05786 36.3587,-61.97752 V 161.19221 h 22.3745 v 192.98054 c -0.056,41.28105 -15.5783,75.23444 -61.53,78.05923 -50.5106,3.0765 -67.0677,-38.12065 -67.1237,-80.85605 z m 137.0442,0 h 25.1714 c -6.153,46.70689 -2.1816,150.74857 -2.7969,204.16782 -0.1957,14.6833 -5.3139,60.88675 -25.3671,60.74691 -7.8311,-0.0559 -12.9493,-5.36989 -11.9984,-13.25692 l 10.0406,-25.11544 c 4.2791,-13.76035 4.9224,-24.94763 4.9504,-39.15547 z m 151.0282,195.77736 h 53.1396 c 5.8174,0.11187 12.8654,-0.19578 17.1725,4.47491 6.6564,7.18783 3.9994,15.77406 -6.153,17.70387 h -50.175 c -6.097,0.19577 -16.0257,-0.41953 -21.1719,3.04853 -6.8242,4.61475 -18.7107,45.75596 -22.1508,55.88045 -3.0485,8.86592 -11.5509,29.61832 -24.9197,19.46586 -5.7614,-4.36304 -3.1883,-13.70441 -1.5662,-19.46586 l 17.62,-53.13957 56.1321,-167.80916 c 2.7409,-8.94982 14.7952,-48.94434 20.3889,-53.16753 4.6427,-3.49603 14.7112,-2.74089 20.4167,-2.76886 l -11.0474,44.74911 -34.8763,106.27914 z m 268.4947,-192.98054 h 72.71732 v 223.74555 h 86.7014 v 72.7173 H 992.83988 Z m 548.17662,0 h 50.3427 l 68.9976,209.76145 26.0943,86.7014 h -53.1396 l -18.4031,-2.85275 -21.5075,-39.0436 -60.7749,-2.85276 -11.1873,44.74911 h -75.5141 l 22.3186,-72.7173 z m 187.3869,0 c 41.8124,0 111.4532,-7.07595 145.4066,16.92076 21.983,15.57828 35.0162,48.77653 33.0864,75.37428 l -3.7757,30.76502 c 1.5662,12.306 11.383,16.50123 18.1513,39.15547 10.6,35.49163 4.0834,85.30299 -25.3112,110.41842 -31.1286,26.59776 -68.0466,23.8289 -106.0274,23.8289 h -61.53 z m -936.93452,2.79682 h 8.3905 l 28.1639,83.90458 45.3365,137.04415 17.4521,55.93639 c 1.2306,8.75404 -1.1467,18.62681 -12.5297,14.93501 -12.8654,-4.13929 -22.3746,-43.99396 -26.4579,-56.8873 L 814.45868,289.8459 c -6.9081,-19.21414 -10.1524,-35.01617 -20.193,-53.13956 l -25.2273,78.31094 -13.0891,30.79298 -20.4168,2.76885 c 0.5594,-22.45846 10.2923,-43.4346 17.8157,-64.32684 z m 609.70662,100.6855 c -0.2237,-25.95448 -6.8802,-50.7343 -25.4231,-69.80861 -34.317,-35.26789 -93.4137,-31.93968 -124.6822,5.48176 -15.3825,18.43104 -20.3888,38.03675 -20.5007,61.53003 -0.1398,30.40143 -3.524,103.25857 4.8945,128.65369 15.2986,46.23142 64.4666,68.60598 109.7751,52.83192 9.3694,-3.24431 16.9487,-8.33452 25.1714,-13.67645 l -11.1873,-13.9841 c -35.4916,28.72334 -84.8555,19.88539 -105.1604,-22.37455 -6.125,-12.78147 -9.3414,-36.07897 -9.5092,-50.34275 -0.4195,-37.92487 -5.6775,-101.10502 18.2633,-131.42254 24.8357,-31.43625 73.5283,-34.2051 101.4965,-5.34192 16.4733,17.03263 20.0253,35.82725 20.0812,58.45352 z m -380.3674,-89.49822 h -13.9841 v 240.52646 h 131.4505 v -16.78091 h -117.4664 z m 30.765,0 h -16.7809 v 209.76145 h 16.7809 z m 517.4116,0 -14.8232,2.76885 -8.4743,16.80889 -13.9841,41.95229 -68.9976,206.96463 14.8232,-2.76885 28.5555,-65.47354 23.745,-4.47492 h 53.1396 l -7.0201,-13.92816 -20.9481,-2.85275 h -41.9523 l 19.5777,-67.12367 z m 322.1656,100.6855 c 0.8111,-16.47327 3.6638,-21.84316 0,-39.15547 -5.4818,-33.5059 -27.5767,-56.83137 -62.0614,-61.36222 h -36.3587 -53.1396 v 240.35865 c 31.5482,0 98.6159,5.3699 122.9482,-12.97724 28.2759,-21.31176 28.0521,-75.73787 -8.2786,-94.86811 -18.0954,-9.53715 -51.825,-6.82424 -72.7173,-6.82424 24.5841,33.17028 46.9586,3.94352 72.13,26.34604 22.1788,19.74554 15.4664,54.64985 -10.5999,67.15163 -15.1029,7.24376 -67.3754,4.39101 -86.7014,4.39101 V 289.8459 c 44.9728,0 110.5582,-10.59994 133.2684,39.15548 6.3208,13.90019 8.3625,32.61091 5.1182,47.54592 -4.447,20.61256 -18.5429,28.5835 1.4543,39.15547 18.9345,-35.99506 24.9197,-69.92048 1.4823,-106.16726 -12.7814,-19.80148 -29.9819,-22.37455 -35.4077,-31.60406 -1.4823,-4.83849 0.084,-13.39676 0,-18.85056 0.4475,-6.18097 0.3356,-13.56457 0,-19.57773 -10.0965,-37.00192 -51.2098,-33.56184 -80.7442,-33.56184 4.9504,6.6844 8.5583,12.02633 16.781,15.10283 11.6347,4.36304 24.2484,-2.96463 38.652,10.71182 16.5572,15.46641 11.411,37.30957 0,42.42775 -4.6707,2.01371 -13.9561,1.67809 -19.0743,1.67809 h -61.53 v -81.10776 c 31.9396,0 82.0866,-7.52345 105.3561,17.28434 8.7821,9.34138 13.0612,20.47272 14.4316,33.05841 1.762,16.16561 -4.391,27.54867 14.991,33.56183 z m -308.1815,-92.29504 -22.3746,58.73321 -33.5618,100.68549 16.5571,-4.39101 11.4111,-29.17082 22.3745,-72.7173 h 8.3905 l 17.7039,58.7332 33.5618,100.6855 17.8157,44.77708 14.8232,2.76885 -56.8594,-173.4028 z m -209.7615,81.10776 c -2.657,-14.51549 -4.1393,-29.56238 -13.0052,-41.92432 -17.8157,-24.83576 -57.8382,-32.2753 -79.2898,-8.02687 18.8785,10.9915 18.5709,-0.5314 36.3586,0 26.5139,1.76199 37.2537,27.18508 39.1555,49.95119 z M 159.3877,203.1445 c 21.00412,6.18098 24.91966,19.01838 25.17138,39.15548 v 128.65369 c -0.0559,24.24842 -1.00686,25.08746 -25.17138,25.17137 z m 1613.7648,16.78092 -2.7968,41.95229 h 16.7809 c 0,-22.62627 2.0976,-24.4442 -13.9841,-41.95229 z m -500.6307,5.59364 c -20.0532,25.95448 -14.1519,89.66603 -13.9841,123.06005 0.084,18.2912 3.0486,38.40033 15.0749,53.0277 20.6125,25.0595 59.9638,26.68165 81.8908,2.62901 13.3968,-14.68331 14.3477,-28.86318 17.7039,-47.26625 h -16.7809 c -1.1187,13.25692 -3.4401,25.47902 -12.6696,35.77132 -18.5429,20.61256 -48.4409,15.85796 -61.6978,-7.8311 -6.2929,-11.29915 -6.6844,-21.03208 -6.7404,-33.53386 v -75.51412 c 0.028,-20.50069 8.6981,-33.5059 -2.7968,-50.34275 z m 525.8021,36.35865 c 6.9081,0 26.9333,1.20263 31.8557,-2.85275 5.7335,-4.7546 2.5172,-13.34083 -2.2934,-17.45216 -7.048,-6.04113 -20.6964,-4.86646 -29.5623,-4.86646 z m -1006.85502,5.59364 h 8.3905 l 24.2484,72.7173 25.6188,75.51412 c 3.6079,10.87963 21.7593,49.92323 -4.9783,43.82616 -17.8717,-4.08335 -14.04,-34.31697 -26.5138,-44.94488 -13.0053,-11.10338 -67.9348,2.32136 -80.8841,-9.34138 -5.23,-4.69866 -6.153,-11.04744 -7.4115,-17.50809 h 81.1077 l -24.64,-89.49822 z m 791.49992,8.39046 -7.3557,22.37455 24.1366,89.49822 h -75.5141 l 11.6907,12.30601 72.2138,1.67809 c 1.4544,9.34137 7.8311,36.58239 15.4105,41.89635 4.3631,3.0765 10.2923,2.68495 15.3546,2.85276 z m 190.1837,39.15547 -2.7968,72.7173 h 16.7809 l -1.6781,-55.93639 z m -206.9647,8.39046 -8.3904,22.37455 h 16.7809 z m 232.1361,64.32684 c 11.0754,0 32.3312,1.37044 41.7285,-3.66383 17.6479,-9.59309 17.8996,-36.55443 0,-46.20346 -8.7261,-4.72662 -31.1006,-3.27228 -41.7285,-3.27228 z m -397.1484,-30.76501 h -16.7809 c -0.3916,44.02193 -20.5566,43.77022 0,61.53002 10.9915,-25.56292 16.5292,-32.47107 16.7809,-61.53002 z m 111.8728,39.15547 -19.5778,50.34275 c 3.9715,-0.13984 9.1736,0.16781 12.8095,-1.59419 7.8031,-3.77571 14.5714,-26.65369 13.2289,-34.76446 -0.8949,-5.3699 -3.8036,-9.42529 -6.4606,-13.9841 z m -797.09352,2.79682 c 32.527,10.15245 5.6495,55.5728 1.5942,58.22978 -16.1936,10.62791 -18.7947,-7.66329 -15.3266,-19.07431 l 4.8665,-13.9841 z m 1166.27362,30.45736 c -10.9915,-20.44475 -18.9904,-4.44694 -41.9523,0 -18.3656,2.98454 -100.6855,0 -100.6855,0 v 16.4453 c 0,0 81.9399,2.98283 103.4824,0 16.69,-2.99774 39.1554,-16.4453 39.1554,-16.4453 z M 262.87002,420.87689 c 21.53546,-4.11132 24.36026,14.31972 8.22265,24.58404 -18.59885,11.83055 -50.76227,14.96299 -72.5495,14.99095 -9.98464,0.028 -57.61448,1.17467 -63.45983,-1.67809 -7.13189,-3.49602 -8.25061,-15.66219 -1.98574,-20.64052 4.41898,-3.49603 15.15876,-2.85276 20.69646,-2.85276 l 78.31095,-1.45435 c 11.0754,-2.40526 20.58459,-8.27858 30.76501,-12.94927 z m 875.40448,8.80998 H 1006.824 v 16.78092 h 131.4505 z"
     style="fill:#000000" />
</svg>
