<?xml version="1.0" encoding="UTF-8" standalone="no"?>
<svg
   width="7in"
   height="2in"
   viewBox="0 0 503.99598 143.99885"
   version="1.1"
   id="svg579"
   sodipodi:docname="tyre"
   inkscape:export-filename="tyre.svg"
   inkscape:export-xdpi="96"
   inkscape:export-ydpi="96"
   xmlns:inkscape="http://www.inkscape.org/namespaces/inkscape"
   xmlns:sodipodi="http://sodipodi.sourceforge.net/DTD/sodipodi-0.dtd"
   xmlns="http://www.w3.org/2000/svg"
   xmlns:svg="http://www.w3.org/2000/svg">
  <defs
     id="defs583" />
  <sodipodi:namedview
     id="namedview581"
     pagecolor="#ffffff"
     bordercolor="#000000"
     borderopacity="0.25"
     inkscape:showpageshadow="2"
     inkscape:pageopacity="0.0"
     inkscape:pagecheckerboard="0"
     inkscape:deskcolor="#d1d1d1"
     inkscape:document-units="in"
     showgrid="false" />
  <path
     id="Selection"
     fill="none"
     stroke="#000000"
     stroke-width="0.0451593"
     d="m 363.79702,12.488428 c 0,0 2.70956,0 2.70956,0 0,0 4.83205,0 4.83205,0 0,0 0.45159,0.03478 0.45159,0.03478 0.71578,0.04875 1.66096,0.05374 2.20875,0.595652 0.62636,0.620485 0.2276,1.503806 -0.17658,2.117974 -0.42404,0.64397 -1.79282,2.46841 -2.30312,2.980513 -0.4945,0.495852 -1.02647,0.885125 -1.76122,0.856221 -0.42811,-0.01674 -0.94473,-0.220381 -1.35478,-0.340501 -0.71126,-0.208183 -1.33762,-0.368047 -2.07732,-0.457912 0,0 -1.26447,-0.102971 -1.26447,-0.102971 0,0 -0.58707,-0.04337 -0.58707,-0.04337 0,0 -0.67739,0 -0.67739,0 0,0 -0.76771,-0.04698 -0.76771,-0.04698 0,0 -3.8837,0 -3.8837,0 -0.64533,-0.0077 -1.08247,-0.217663 -1.18002,-0.90318 -0.0171,-0.120129 -0.0339,-0.192384 -0.0248,-0.31612 0.10884,-1.445094 0.80971,-2.16584 1.92741,-2.997226 0.6977,-0.518875 1.41303,-0.925313 2.25796,-1.150654 0.34321,-0.09123 0.72977,-0.145868 1.08383,-0.179739 0,0 0.58706,-0.04652 0.58706,-0.04652 z m 55.8621,97.763642 c -0.0402,0.34863 -0.32876,0.57217 -0.58708,0.78532 0,0 -1.67089,1.21659 -1.67089,1.21659 -2.37358,1.58238 -4.80134,3.06361 -7.22549,4.56516 0,0 -8.4448,5.09307 -8.4448,5.09307 0,0 -13.18652,7.90289 -13.18652,7.90289 0,0 -3.02568,1.79057 -3.02568,1.79057 -0.99711,0.569 -1.77295,0.98176 -2.93536,1.09827 0,0 -0.31611,0.0339 -0.31611,0.0339 0,0 -0.31612,-0.0339 -0.31612,-0.0339 -1.22697,-0.11877 -2.27377,-0.56811 -3.29662,-1.25002 -0.65527,-0.43713 -1.20034,-0.95376 -1.70342,-1.55754 -0.56314,-0.67604 -1.05853,-1.46497 -1.52187,-2.21281 -0.95828,-1.5467 -1.79824,-3.1607 -2.61156,-4.78689 -2.62014,-5.24029 -4.69793,-11.05455 -6.22748,-16.70895 -1.59231,-5.88696 -2.73846,-12.090957 -3.38739,-18.154048 0,0 -0.30121,-2.75472 -0.30121,-2.75472 0,0 -0.23754,-3.070833 -0.23754,-3.070833 0,0 -0.13142,-2.212807 -0.13142,-2.212807 0,0 -0.0451,-0.587076 -0.0451,-0.587076 0,0 -0.0451,-1.354775 -0.0451,-1.354775 0,0 -0.0451,-0.632232 -0.0451,-0.632232 0,0 0,-0.72255 0,-0.72255 0,0 -0.0451,-0.722551 -0.0451,-0.722551 0,0 0,-7.541611 0,-7.541611 0,0 0.0451,-0.677387 0.0451,-0.677387 0,0 0.0451,-1.490257 0.0451,-1.490257 0,0 0.0451,-0.632231 0.0451,-0.632231 0,0 0.0451,-1.128982 0.0451,-1.128982 0,0 0.0451,-0.632232 0.0451,-0.632232 0,0 0.0411,-0.632232 0.0411,-0.632232 0,0 0.0533,-1.083825 0.0533,-1.083825 0,0 0.0822,-0.903189 0.0822,-0.903189 0.12419,-1.813147 0.32289,-3.613198 0.53921,-5.419122 0.67242,-5.624141 1.43651,-9.941373 2.81252,-15.444488 0,0 0.73564,-2.890203 0.73564,-2.890203 0.64894,-2.332475 1.39633,-4.629283 2.20784,-6.909378 0.55591,-1.562059 1.12447,-3.121408 1.76618,-4.651408 0,0 1.88766,-4.109504 1.88766,-4.109504 0,0 1.19809,-2.528919 1.19809,-2.528919 0,0 1.17142,-2.212808 1.17142,-2.212808 0.3816,-0.704034 0.76275,-1.42478 1.29157,-2.032169 0.75777,-0.87113 2.04255,-1.544901 3.14805,-1.857858 0.35631,-0.100706 0.89777,-0.214961 1.26446,-0.219475 0,0 0.58707,0 0.58707,0 0.72119,0.0086 1.5729,0.301211 2.21281,0.620939 1.25814,0.629069 2.24984,1.460002 3.14987,2.540212 0.98356,1.18047 2.03217,2.826077 2.82923,4.154658 1.13124,1.884958 2.19429,3.827262 3.11193,5.825561 0,0 1.54761,3.432108 1.54761,3.432108 0.82009,1.954948 1.54806,3.954606 2.23177,5.961035 2.18571,6.41669 3.77893,13.824177 4.66405,20.547498 0.30257,2.299511 0.55501,4.59767 0.71397,6.909379 0,0 0.22174,3.432108 0.22174,3.432108 0,0 0.0451,0.587068 0.0451,0.587068 0,0 0,0.587076 0,0.587076 0,0 0.0451,0.677388 0.0451,0.677388 0,0 0.0903,3.341789 0.0903,3.341789 0,0 0.0451,0.767714 0.0451,0.767714 0,0 0,1.71605 0,1.71605 0,0 -0.0451,0.767713 -0.0451,0.767713 0,0 -0.13547,4.606253 -0.13547,4.606253 0,0 -0.0434,0.451594 -0.0434,0.451594 0,0 0,0.451594 0,0.451594 0,0 -0.047,0.722543 -0.047,0.722543 0,0 -0.0863,1.174145 -0.0863,1.174145 0,0 -0.22218,2.890202 -0.22218,2.890202 -0.4376,4.517738 -1.06757,9.002963 -1.95857,13.457482 0,0 -0.61416,2.935351 -0.61416,2.935351 -0.0903,0.45205 -0.26057,1.41665 -0.23076,1.85153 0.0257,0.3816 0.0994,0.78938 0.28134,1.12899 0.40372,0.75144 1.2473,1.07433 2.06288,1.08382 0,0 0.22579,0 0.22579,0 0,0 0.49676,0.0375 0.49676,0.0375 0.22805,0.023 0.54823,0.0203 0.41275,0.36895 -0.06,0.1549 -0.24973,0.33328 -0.3676,0.4516 -0.27186,0.27321 -0.55772,0.5261 -0.85802,0.7677 0,0 -3.29664,2.44222 -3.29664,2.44222 -0.53287,0.48953 -0.91628,0.90499 -1.28929,1.5318 -0.63043,1.05989 -1.21027,2.86311 -1.68219,4.06435 -0.25876,0.65842 -0.57939,1.53361 -0.74829,2.2128 -0.0641,0.25742 -0.17386,0.83184 -0.15579,1.08383 0.0659,0.92216 0.56313,1.53091 1.52728,1.53542 0,0 0.2258,0 0.2258,0 0.67604,-0.008 1.67586,-0.41095 2.30312,-0.67739 0,0 3.65791,-1.6569 3.65791,-1.6569 4.05124,-1.8556 8.0939,-3.74822 12.19302,-5.49725 0,0 3.79338,-1.5476 3.79338,-1.5476 0.61237,-0.21858 1.32904,-0.52205 1.98702,-0.4656 z m -64.0811,-97.063216 c 0.33373,-0.06909 0.69681,-0.03339 0.92938,0.246114 0.28677,0.344117 0.1427,0.882414 -0.29715,1.008408 -0.29895,0.0858 -0.64036,-0.01221 -0.84041,-0.249277 -0.28631,-0.340049 -0.21451,-0.823709 0.20818,-1.005245 z m -8.219,0.260569 c 1.40446,-0.167095 2.10804,1.329487 2.63053,2.374476 0,0 0.49675,1.038662 0.49675,1.038662 0,0 1.17189,2.483764 1.17189,2.483764 0.26554,0.661589 0.3825,1.050409 0.45024,1.761214 0.0122,0.127352 0.033,0.179286 0.023,0.31612 -0.0587,0.785317 -0.17928,1.25046 -0.45159,1.987006 -0.22941,0.620494 -0.65978,1.623935 -1.07344,2.122044 -0.25425,0.305725 -0.5812,0.574877 -0.98944,0.624547 -0.70945,0.0858 -1.2604,-0.376176 -1.67993,-0.895059 -0.73519,-0.909506 -1.51148,-2.343768 -2.10668,-3.386944 -0.52792,-0.924868 -0.94879,-1.637477 -1.72283,-2.393 -0.57172,-0.557712 -1.28433,-0.864796 -1.26401,-1.761659 0.0149,-0.653458 0.42946,-1.307815 0.8219,-1.806376 0.70765,-0.898222 1.99966,-1.99559 3.10651,-2.346931 0.24748,-0.07858 0.34051,-0.08038 0.58707,-0.117864 z m -7.40613,9.038186 c 0.50805,-0.08851 0.7221,0.162574 0.98944,0.561781 0,0 1.15202,2.03217 1.15202,2.03217 0,0 2.08952,3.386952 2.08952,3.386952 0,0 1.20711,1.851532 1.20711,1.851532 0.80925,1.292914 1.5318,2.216423 1.6438,3.793383 0.0135,0.193735 -0.0795,0.86571 -0.11606,1.083826 0,0 -0.17522,0.767714 -0.17522,0.767714 -0.27457,1.099172 -0.76229,3.129991 -2.27467,2.831036 -0.66656,-0.131866 -1.39091,-0.883765 -1.80999,-1.385943 0,0 -1.40175,-1.806368 -1.40175,-1.806368 -0.44346,-0.601977 -0.88241,-1.211179 -1.39091,-1.761214 -0.54462,-0.589333 -1.23374,-1.184531 -2.08094,-1.217496 -0.2574,-0.0099 -0.52745,0.0456 -0.7677,0.13638 -0.20006,0.07585 -0.42225,0.191923 -0.58708,0.328303 -1.12447,0.928929 -0.61913,2.571373 -0.0786,3.688164 0.5103,1.054477 1.41123,2.241711 2.14687,3.161159 0,0 2.63189,3.206314 2.63189,3.206314 0.66429,0.795704 1.70612,1.981587 2.07101,2.93535 0.22399,0.585265 0.28089,1.140275 0.27366,1.761214 -0.009,0.781709 -0.30573,2.565507 -0.64894,3.251477 -0.26508,0.530168 -0.71442,0.935248 -1.33807,0.89912 -0.8219,-0.04783 -1.70341,-0.84132 -2.25796,-1.395877 0,0 -1.71199,-1.761213 -1.71199,-1.761213 -0.61733,-0.662487 -1.31776,-1.432903 -2.12656,-1.861466 -0.7948,-0.420887 -1.61761,-0.467401 -2.30313,0.192375 -0.19282,0.185605 -0.32289,0.341408 -0.43713,0.585273 -0.19735,0.421784 -0.20006,0.679191 -0.1951,1.128981 0.0149,1.257232 1.09512,2.71272 1.89444,3.612745 1.544,1.738636 3.32779,3.235219 4.96979,4.877209 1.15969,1.15969 2.14687,2.081847 2.16764,3.838547 0,0 0,1.083826 0,1.083826 -4.5e-4,0.346819 -0.0799,1.049502 -0.13909,1.399938 -0.0465,0.276821 -0.1147,0.552745 -0.22308,0.812869 -0.39831,0.957372 -1.20847,1.057179 -2.07643,0.713515 -1.0328,-0.409141 -2.71272,-1.88766 -3.61275,-2.636857 -0.37844,-0.314761 -0.76409,-0.632232 -1.17414,-0.90589 -0.47146,-0.314316 -1.14027,-0.667009 -1.71606,-0.69139 -1.12176,-0.04744 -1.98836,0.984471 -1.91882,2.075521 0.0989,1.545799 1.11815,2.614724 2.18978,3.613651 1.43426,1.337164 3.81868,2.941223 5.41912,4.198916 0.91989,0.722996 1.94772,1.424773 2.44493,2.528919 0.4832,1.073892 0.65752,2.904651 0.47056,4.06434 -0.14361,0.89145 -0.52701,1.511936 -1.51555,1.489811 -0.65978,-0.01535 -1.42297,-0.407344 -1.98701,-0.728876 0,0 -3.16116,-1.980236 -3.16116,-1.980236 -0.57442,-0.344562 -1.57425,-0.854416 -2.25796,-0.804739 -1.0915,0.07948 -1.7847,0.956926 -1.76077,2.02404 0.0366,1.605418 1.57471,2.928134 2.79943,3.748227 1.69889,1.138017 3.50662,2.137843 5.28364,3.148508 1.08834,0.619135 2.44267,1.35568 3.09568,2.451252 0.18515,0.311145 0.31341,0.650741 0.42676,0.993499 0,0 0.22579,0.858033 0.22579,0.858033 0,0 0.12419,0.677387 0.12419,0.677387 0.16528,0.99125 0.40417,2.626016 -0.84674,3.015742 -0.18515,0.05781 -0.30754,0.05466 -0.49675,0.05512 0,0 -0.18064,0 -0.18064,0 -0.5961,-0.0069 -1.35071,-0.314308 -1.89669,-0.548684 0,0 -2.93536,-1.407162 -2.93536,-1.407162 -0.7388,-0.338244 -1.52186,-0.672873 -2.34828,-0.663392 -1.03596,0.01221 -1.72554,0.807449 -1.79825,1.806376 -0.0208,0.290824 0.10342,0.765449 0.20909,1.038663 0.45611,1.176854 1.52729,1.944107 2.58266,2.547889 1.35343,0.774485 4.44503,2.049327 6.00619,2.723106 1.2026,0.518883 2.52757,1.029635 3.35669,2.089981 0.20909,0.26734 0.41232,0.63584 0.54599,0.94834 0,0 0.31205,0.81287 0.31205,0.81287 0,0 0.19779,0.63223 0.19779,0.63223 0.28406,0.98989 0.68101,2.70459 -0.61913,3.15663 -0.18832,0.0655 -0.38882,0.0921 -0.58707,0.0948 0,0 -0.2258,0 -0.2258,0 -0.57759,-0.007 -1.4758,-0.26599 -2.03217,-0.45159 0,0 -2.6644,-0.91809 -2.6644,-0.91809 -0.51707,-0.17251 -1.31459,-0.43037 -1.85154,-0.43669 0,0 -0.40643,0 -0.40643,0 -1.32317,0.0158 -2.0841,1.26762 -1.71425,2.48376 0.30528,1.0048 1.13621,1.76528 2.03037,2.26429 0.97182,0.54191 2.27332,0.97228 3.34179,1.30421 0,0 3.92886,1.21749 3.92886,1.21749 1.1764,0.36534 2.68879,0.75642 3.55449,1.67586 0.59204,0.62862 1.00525,1.50246 1.32272,2.29907 0.24025,0.60197 0.45882,1.24188 0.45159,1.89669 -0.0108,0.93164 -0.57668,1.348 -1.4451,1.45187 -0.1847,0.0221 -0.25379,0.0442 -0.45159,0.0365 -1.32317,-0.0515 -2.9331,-0.54056 -4.24498,-0.83003 -0.5103,-0.1129 -1.34304,-0.29083 -1.85153,-0.29715 -0.47372,-0.005 -0.97816,0.0519 -1.39994,0.28676 -0.87157,0.48456 -1.25091,1.53948 -0.90861,2.46796 0.23528,0.63945 0.79481,1.13666 1.3602,1.48755 1.11002,0.68868 2.65402,1.0486 3.92887,1.31232 0,0 4.47077,0.89416 4.47077,0.89416 1.0057,0.20096 2.31713,0.40869 3.20631,0.9059 0.97183,0.54372 1.60045,1.5169 2.08862,2.49008 0.21902,0.43714 0.4105,0.83319 0.53604,1.30962 0.19103,0.72526 0.18335,1.52684 -0.54733,1.94727 -0.16709,0.0962 -0.3545,0.16574 -0.54191,0.20955 -0.2985,0.0705 -0.77403,0.10476 -1.08382,0.10115 0,0 -0.99351,-0.0826 -0.99351,-0.0826 -1.56342,-0.15625 -3.33773,-0.5225 -4.87721,-0.50443 0,0 -2.16764,0.22173 -2.16764,0.22173 -1.02693,-0.0583 -1.64335,-0.62545 -2.25797,-1.39588 -0.6783,-0.85034 -1.78019,-2.63549 -2.33564,-3.61274 -0.4674,-0.8219 -0.90138,-1.66367 -1.28343,-2.52892 0,0 -0.81829,-1.94185 -0.81829,-1.94185 0,0 -1.3742,-2.48377 -1.3742,-2.48377 0,0 -0.63222,-1.30962 -0.63222,-1.30962 -0.87249,-1.90482 -2.00373,-5.02353 -2.63235,-7.04486 0,0 -0.66519,-2.34828 -0.66519,-2.34828 0,0 -1.50832,-5.28364 -1.50832,-5.28364 -0.54237,-2.17126 -1.00525,-4.385876 -1.37556,-6.593263 0,0 -0.52836,-3.612753 -0.52836,-3.612753 0,0 -0.74784,-5.193321 -0.74784,-5.193321 0,0 -0.32786,-3.883702 -0.32786,-3.883702 0,0 -0.0863,-1.309619 -0.0863,-1.309619 0,0 -0.0434,-0.496757 -0.0434,-0.496757 0,0 0,-0.632232 0,-0.632232 0,0 -0.047,-0.677387 -0.047,-0.677387 0,0 0,-1.896688 0,-1.896688 0,0 -0.0434,-0.541913 -0.0434,-0.541913 0,0 0,-0.587076 0,-0.587076 0,0 -0.047,-0.451594 -0.047,-0.451594 0,0 0,-0.406431 0,-0.406431 0,0 -0.0903,-1.399938 -0.0903,-1.399938 0,0 -0.0451,-0.767714 -0.0451,-0.767714 0,0 0,-2.528919 0,-2.528919 0,0 0.0451,-0.677388 0.0451,-0.677388 0,0 0,-0.587076 0,-0.587076 0,0 0.0451,-0.722551 0.0451,-0.722551 0,0 0.0903,-2.528919 0.0903,-2.528919 0,0 0.0411,-0.451594 0.0411,-0.451594 0,0 0.10207,-1.53542 0.10207,-1.53542 0,0 0.26734,-2.799876 0.26734,-2.799876 0,0 0.0411,-0.451594 0.0411,-0.451594 0,0 0.0451,-1.083826 0.0451,-1.083826 0,0 0.0434,-0.49675 0.0434,-0.49675 0.0578,-1.331299 0.22173,-2.652211 0.39559,-3.974021 0.26644,-2.02404 0.59068,-4.053952 1.01564,-6.051353 0,0 0.4683,-1.941851 0.4683,-1.941851 0,0 0.67152,-3.612746 0.67152,-3.612746 0,0 0.68326,-2.845039 0.68326,-2.845039 0.47868,-1.721477 0.94608,-3.528752 1.59096,-5.193328 0,0 0.65255,-1.535413 0.65255,-1.535413 0,0 0.79887,-1.670894 0.79887,-1.670894 0,0 0.72571,-2.709565 0.72571,-2.709565 0.39153,-1.259044 0.93705,-2.467957 1.49929,-3.657901 0.5112,-1.082475 1.02331,-2.181202 1.64289,-3.206315 0.28496,-0.471462 0.69907,-1.053118 1.23738,-1.239176 z m 22.62483,0.164831 c 0,0 1.80638,0 1.80638,0 0.72932,-0.0094 1.68941,-0.03977 2.39344,0.09258 0.74919,0.140449 1.14659,0.451141 1.12853,1.252726 -0.0136,0.586162 -0.33328,1.320006 -0.57307,1.851532 -0.36218,0.80338 -0.779,1.66909 -1.27892,2.393445 -0.33056,0.478686 -0.81151,0.968211 -1.44419,0.925313 -0.41456,-0.02848 -1.08383,-0.30257 -1.53541,-0.421785 -0.55186,-0.145416 -1.23556,-0.193734 -1.80638,-0.187416 0,0 -0.72255,0.04514 -0.72255,0.04514 0,0 -1.17415,0.08625 -1.17415,0.08625 0,0 -0.9935,0.05689 -0.9935,0.05689 -1.02647,0.09754 -1.72193,0.271862 -2.70956,0.471017 0,0 -1.94185,0.382947 -1.94185,0.382947 -0.31025,0.05105 -0.73655,0.12825 -1.03866,0.04468 -0.67784,-0.186511 -0.68417,-0.918995 -0.6774,-1.49342 0.01,-0.839516 0.41547,-1.938696 0.96189,-2.574083 0.35,-0.406884 0.83907,-0.70223 1.3864,-0.531979 0.85171,0.265084 1.67948,1.436971 2.70956,1.478519 0.21315,0.0086 0.39018,-0.01896 0.58707,-0.103869 0.6932,-0.298954 1.0775,-1.020146 1.30962,-1.700696 0.15039,-0.442113 0.32289,-1.052665 0.64036,-1.398134 0.46921,-0.509854 1.53903,-0.633138 2.20468,-0.634043 0.25696,-4.46e-4 0.51256,0.01036 0.76771,-0.0357 z m 21.94744,8.854393 c -0.27322,0.04023 -0.49811,0.06594 -0.76771,0.142253 -1.9852,0.559977 -3.43256,2.166293 -4.48974,3.864287 -2.04843,3.288503 -3.37386,7.528959 -4.26575,11.28983 -0.88378,3.726095 -1.53226,7.527163 -1.94005,11.334994 0,0 -0.33102,3.432115 -0.33102,3.432115 0,0 -0.21812,2.574083 -0.21812,2.574083 0,0 0,0.406431 0,0.406431 0,0 -0.0451,0.677387 -0.0451,0.677387 0,0 -0.0451,0.677395 -0.0451,0.677395 0,0 -0.0451,1.174137 -0.0451,1.174137 0,0 -0.0451,0.722551 -0.0451,0.722551 0,0 0,0.632231 0,0.632231 0,0 -0.0451,0.722551 -0.0451,0.722551 0,0 0,1.038663 0,1.038663 0,0 -0.0451,0.767714 -0.0451,0.767714 0,0 0,4.290132 0,4.290132 0,0 0.0451,0.722551 0.0451,0.722551 0,0 0,0.993507 0,0.993507 0,0 0.0451,0.677387 0.0451,0.677387 0,0 0,0.677395 0,0.677395 0,0 0.0434,0.541906 0.0434,0.541906 0,0 0,0.541913 0,0.541913 0,0 0.047,0.632231 0.047,0.632231 0,0 0.0451,1.038663 0.0451,1.038663 0,0 0.0863,1.174145 0.0863,1.174145 0,0 0.31251,3.748227 0.31251,3.748227 0.37617,3.885053 0.81241,6.959056 1.57922,10.79308 0.51617,2.579956 1.26491,5.518918 2.14552,7.993198 0.71713,2.01591 1.66051,4.26981 2.84594,6.05135 1.00435,1.50877 2.2801,2.93761 4.04944,3.52243 0.3387,0.11199 0.81874,0.22128 1.17414,0.2258 0.75687,0.009 1.15744,0.007 1.89669,-0.22716 1.69483,-0.53694 3.03019,-1.99288 3.98893,-3.43075 1.10324,-1.65418 1.95811,-3.60326 2.65176,-5.46428 0.71713,-1.92379 1.37826,-4.04718 1.82308,-6.05135 0,0 0.91041,-4.244977 0.91041,-4.244977 0.70313,-3.898602 1.19672,-7.838752 1.46812,-11.786587 0,0 0.0822,-0.90318 0.0822,-0.90318 0,0 0.0533,-0.993507 0.0533,-0.993507 0,0 0.0411,-0.496758 0.0411,-0.496758 0,0 0.0451,-0.812861 0.0451,-0.812861 0,0 0.047,-0.767714 0.047,-0.767714 0,0 0,-0.587069 0,-0.587069 0,0 0.0434,-0.49675 0.0434,-0.49675 0,0 0,-0.812869 0,-0.812869 0,0 0.0451,-0.767714 0.0451,-0.767714 0,0 0,-7.586766 0,-7.586766 0,0 -0.0451,-0.677387 -0.0451,-0.677387 -0.003,-1.706124 -0.15082,-3.403212 -0.26688,-5.10301 -0.25966,-3.793383 -0.67332,-7.582705 -1.32497,-11.334994 0,0 -0.65707,-3.386952 -0.65707,-3.386952 -0.55907,-2.795362 -1.41529,-5.826459 -2.42867,-8.489954 -0.61959,-1.628894 -1.61444,-3.7848 -2.61924,-5.193321 -0.36985,-0.518882 -0.75325,-1.029182 -1.19491,-1.490257 -1.23105,-1.285237 -2.88388,-2.142817 -4.69477,-1.97437 z m -22.17323,1.3611 c 0.56178,-0.06817 1.13756,-0.02664 1.31278,0.61327 0.0406,0.148118 0.0411,0.255603 0.042,0.406431 0.003,0.680097 -0.19825,1.340327 -0.38746,1.987014 0,0 -0.91991,2.754713 -0.91991,2.754713 -0.20953,0.562686 -0.60467,1.486195 -1.04272,1.888565 -0.64127,0.588428 -1.23285,-0.169345 -1.80457,-0.474172 -0.58843,-0.313855 -1.15201,-0.3834 -1.80637,-0.375723 -0.57759,0.0069 -1.5738,0.222185 -2.16765,0.333723 -1.87366,0.351341 -2.19249,0.402823 -4.01918,1.036413 0,0 -1.94186,0.64668 -1.94186,0.64668 -0.31791,0.09889 -0.84944,0.249277 -1.17413,0.172055 -0.68959,-0.164378 -0.77449,-1.154722 -0.76772,-1.737277 0.004,-0.348178 0.10342,-0.926672 0.20006,-1.264463 0.0948,-0.332372 0.21225,-0.600166 0.37753,-0.903189 0.10161,-0.18651 0.22218,-0.345015 0.37257,-0.494945 0.50984,-0.508043 1.07298,-0.436241 1.66909,-0.122831 0.79977,0.420879 1.81133,1.245041 2.75472,0.738803 0.75597,-0.405533 1.01789,-1.280716 1.17414,-2.062878 0.10883,-0.543717 0.20006,-1.136658 0.63313,-1.52729 0.53514,-0.482301 1.60497,-0.63313 2.30222,-0.7668 0,0 1.98702,-0.328764 1.98702,-0.328764 0,0 3.20631,-0.519335 3.20631,-0.519335 z m -2.39345,10.25569 c 0.87067,-0.129157 0.72887,1.098726 0.72255,1.64741 -0.009,0.770869 -0.48546,2.883424 -0.65933,3.748228 0,0 -0.59249,2.574082 -0.59249,2.574082 -0.29579,0.996218 -0.68823,1.971653 -0.69004,3.025677 0,0 0,1.354775 0,1.354775 0,0 -0.0451,0.541913 -0.0451,0.541913 0,0 0,0.406439 0,0.406439 0,0 -0.21811,2.122488 -0.21811,2.122488 0,0 -0.29129,2.845039 -0.29129,2.845039 0,0 -0.43894,3.386945 -0.43894,3.386945 0,0 0,2.032177 0,2.032177 0,0 0.0451,0.677388 0.0451,0.677388 0,0 0,0.948343 0,0.948343 0,0 -0.0451,0.677395 -0.0451,0.677395 0,0 -0.0903,3.567583 -0.0903,3.567583 0,0 -0.0451,0.948351 -0.0451,0.948351 0,0 -0.0903,1.445094 -0.0903,1.445094 0,0 0,1.174144 0,1.174144 0,0 0.26328,2.754721 0.26328,2.754721 0,0 0.14722,2.257963 0.14722,2.257963 0.0908,1.326332 0.22399,2.641824 0.22173,3.974028 0,0 -0.0411,0.541905 -0.0411,0.541905 0,0 -0.10116,1.12899 -0.10116,1.12899 -0.0266,0.221279 -0.0957,0.655707 -0.0705,0.858025 0,0 0.66971,2.212807 0.66971,2.212807 0.28857,1.09782 0.45791,2.223646 0.64533,3.341788 0,0 0.34276,2.483764 0.34276,2.483764 0,0 0,0.767714 0,0.767714 -7.7e-4,0.451141 -0.0863,1.009306 -0.49676,1.2771 -0.27998,0.181996 -0.71984,0.143159 -1.03866,0.180637 -0.57894,0.06909 -1.12672,0.198249 -1.62574,0.515274 -0.80518,0.511651 -1.32181,1.064857 -1.98701,1.73005 0,0 -1.56116,1.58058 -1.56116,1.58058 0,0 -2.16222,2.79987 -2.16222,2.79987 -0.46243,0.57804 -1.16918,1.61716 -2.01185,1.0486 -0.13729,-0.093 -0.2687,-0.20728 -0.37979,-0.33011 -0.67017,-0.73972 -1.12176,-1.93146 -1.11047,-2.93129 0.006,-0.55411 0.17115,-1.06305 0.72255,-1.28839 0.88648,-0.36219 2.69014,0.17838 3.41043,-1.01474 0.45747,-0.757318 0.17522,-1.690761 -0.15264,-2.4386 -0.17115,-0.390631 -0.43714,-0.96686 -0.40462,-1.399938 0.0605,-0.796617 0.85847,-1.544002 1.3918,-2.077333 1.30059,-1.300591 2.75112,-2.459374 3.92525,-3.883701 0.34503,-0.418629 0.80294,-1.114533 0.98177,-1.625739 0.0609,-0.174764 0.14722,-0.448431 0.13322,-0.632231 -0.0213,-0.285858 -0.18244,-0.553198 -0.36444,-0.765902 -0.17657,-0.205926 -0.45927,-0.410047 -0.70177,-0.531527 -0.87519,-0.438044 -1.62032,-0.23076 -2.43861,0.203669 -0.52385,0.278188 -1.31865,0.920354 -1.80637,1.300591 -1.42117,1.10731 -1.67812,1.284331 -2.93942,2.638207 0,0 -0.57037,0.587076 -0.57037,0.587076 -0.40914,0.464238 -0.8526,0.906344 -1.32226,1.309619 -0.26328,0.226247 -0.58075,0.468752 -0.94834,0.446628 -0.56178,-0.03339 -0.96325,-0.719388 -1.18499,-1.169178 -0.3405,-0.690031 -0.49449,-1.446453 -0.48591,-2.212807 0.006,-0.498561 0.15625,-1.119953 0.63223,-1.369683 0.26915,-0.141347 0.60468,-0.168892 0.90319,-0.165737 0,0 1.4451,0.08626 1.4451,0.08626 0.24341,-0.01674 0.54236,-0.06771 0.7677,-0.159864 0.17793,-0.0727 0.34728,-0.178381 0.48908,-0.308443 1.13305,-1.040467 0.0401,-2.71001 0.0528,-3.817765 0.01,-0.868419 0.82642,-1.474005 1.4451,-1.96895 1.44104,-1.152918 3.02794,-2.140553 4.3353,-3.450172 0.77538,-0.776289 1.59999,-2.026297 0.92712,-3.115995 -0.67242,-1.089691 -1.94908,-0.983574 -2.95929,-0.506684 0,0 -1.89669,1.084724 -1.89669,1.084724 0,0 -1.94186,1.245041 -1.94186,1.245041 0,0 -1.94185,1.597741 -1.94185,1.597741 -0.43036,0.355856 -0.93164,0.765902 -1.39993,1.063951 -0.22581,0.143159 -0.5365,0.315667 -0.81287,0.286763 -0.49857,-0.05197 -0.79165,-0.568107 -0.97951,-0.978153 -0.33328,-0.727065 -0.42947,-1.512382 -0.42043,-2.303127 0.005,-0.424494 0.12148,-0.988985 0.41456,-1.307815 0.50759,-0.551394 1.24866,-0.337338 1.88856,-0.209533 0,0 0.81287,0.124634 0.81287,0.124634 0.13999,0.01535 0.21361,0.04023 0.36128,0.02979 0.23212,-0.01674 0.5112,-0.07047 0.72254,-0.167994 0.18742,-0.08626 0.34863,-0.209088 0.48186,-0.366242 0.55456,-0.65481 0.48907,-1.517809 0.35766,-2.302673 -0.11109,-0.660683 -0.25425,-1.301497 0.15625,-1.896696 0.39424,-0.571262 1.42026,-1.151559 2.02991,-1.517356 1.57155,-0.942471 3.87919,-1.981134 4.9603,-3.450172 0.28225,-0.3834 0.56766,-0.955115 0.53966,-1.445093 -0.0542,-0.963706 -1.03551,-1.729608 -1.97753,-1.662772 -0.89958,0.0641 -1.71651,0.452047 -2.52892,0.811065 -1.89669,0.83861 -2.15862,0.950148 -3.92887,2.073264 0,0 -1.98701,1.226977 -1.98701,1.226977 -0.30482,0.16077 -0.68642,0.371663 -1.03866,0.346828 -0.36398,-0.02526 -0.58978,-0.278181 -0.75326,-0.582555 -0.25831,-0.481856 -0.41817,-1.39362 -0.42088,-1.941858 -10e-4,-0.287209 0.0276,-0.667001 0.0813,-0.948344 0.0474,-0.246567 0.11561,-0.493587 0.21993,-0.722551 0.0564,-0.124634 0.13186,-0.253791 0.21902,-0.359463 0.27141,-0.330115 0.52656,-0.367601 0.92487,-0.363087 0.70132,0.0081 1.53406,0.522951 2.34828,0.541467 0.25198,0.0054 0.44075,-0.0172 0.67738,-0.110647 0.21271,-0.08445 0.33554,-0.178373 0.49496,-0.3414 0.56449,-0.575783 0.59023,-1.320912 0.58887,-2.076427 -7.7e-4,-0.529722 -0.1287,-1.007057 0.10613,-1.53542 0.36489,-0.821445 1.7603,-1.358843 2.55827,-1.703406 1.50923,-0.651655 3.74507,-1.462712 4.96753,-2.485123 0.58888,-0.493141 1.27123,-1.254069 1.0608,-2.088618 -0.0456,-0.180638 -0.17522,-0.435787 -0.28361,-0.587068 -0.80158,-1.119954 -2.09674,-0.985378 -3.26095,-0.670617 -0.80926,0.219022 -2.87169,0.862992 -3.61275,1.167819 0,0 -2.12249,1.004347 -2.12249,1.004347 0,0 -1.76121,0.786223 -1.76121,0.786223 -0.24432,0.08399 -0.55682,0.188315 -0.81287,0.115154 -0.36037,-0.10251 -0.51437,-0.358113 -0.64082,-0.686876 -0.21811,-0.568552 -0.22398,-1.075244 -0.21721,-1.670895 0.0104,-0.880603 0.43669,-2.589889 1.58058,-2.505443 0.9524,0.07001 1.68805,0.847193 2.79988,0.834549 0.26373,-0.0031 0.40146,-0.04245 0.63223,-0.175218 0.77583,-0.446174 0.97815,-1.439681 1.0346,-2.263391 0.0447,-0.65345 0.0348,-1.31639 0.59294,-1.776114 0.47914,-0.394693 1.42568,-0.685517 2.03037,-0.862094 0,0 3.25147,-0.961893 3.25147,-0.961893 0.72616,-0.218569 1.42793,-0.497203 2.12248,-0.79932 0.39108,-0.170251 0.75914,-0.388367 1.17415,-0.49946 z m -0.0903,58.125487 c 0.60919,0.0131 0.94563,0.83274 1.12672,1.32588 0.34096,0.92937 0.65798,2.10351 0.89958,3.07083 0.13186,0.52746 0.34095,1.362 0.32018,1.89669 -0.0117,0.30256 -0.0872,0.737 -0.24928,0.9935 -0.26102,0.41412 -0.61507,0.58527 -1.01338,0.83184 -0.45746,0.2836 -0.86841,0.56449 -1.26446,0.93344 -0.45972,0.42811 -0.91493,0.99938 -1.32091,1.4862 0,0 -1.44645,1.80637 -1.44645,1.80637 0,0 -1.31504,2.12249 -1.31504,2.12249 0,0 -1.17505,1.80637 -1.17505,1.80637 -0.1996,0.25651 -0.44753,0.54959 -0.7939,0.58256 -0.44121,0.0415 -0.83003,-0.24206 -1.12718,-0.53921 -0.60107,-0.60016 -1.21072,-1.79959 -1.2211,-2.66258 -0.004,-0.37845 -0.0343,-0.71578 0.20592,-1.03868 0.33869,-0.4561 0.85035,-0.52384 1.37465,-0.59925 0.88106,-0.1269 1.98972,-0.28722 2.34422,-1.25228 0.0813,-0.22173 0.0989,-0.3983 0.0939,-0.63223 -0.014,-0.60468 -0.31837,-1.19446 -0.60061,-1.71605 -0.21496,-0.39785 -0.46199,-0.79706 -0.48095,-1.26446 -0.0289,-0.71578 0.52927,-1.40175 0.94112,-1.94185 0,0 1.04047,-1.26447 1.04047,-1.26447 0,0 2.04708,-2.43859 2.04708,-2.43859 0.37617,-0.4516 1.03369,-1.40085 1.61444,-1.50652 z m 3.38694,12.14786 c 0.72617,-0.14587 1.10731,0.44843 1.41349,1.00976 0.36264,0.66384 0.6363,1.37601 0.91674,2.07733 0.29444,0.73609 0.61417,1.54535 0.60513,2.34828 -0.009,0.821 -0.43262,1.19943 -0.94066,1.76122 0,0 -1.03596,1.17414 -1.03596,1.17414 -0.47688,0.62139 -1.94501,2.8053 -2.31984,3.47727 0,0 -1.15652,2.34828 -1.15652,2.34828 -0.27819,0.55592 -0.58392,1.20531 -0.93073,1.71606 -0.21993,0.32424 -0.47102,0.56584 -0.88694,0.5374 -0.40734,-0.0276 -0.84493,-0.35496 -1.12898,-0.62952 -0.68552,-0.6625 -1.50697,-2.07643 -1.27891,-3.06903 0.1436,-0.62637 0.62906,-0.83364 1.18859,-0.98674 0.89054,-0.2434 2.12339,-0.41321 2.4368,-1.45187 0.0438,-0.14496 0.0894,-0.39243 0.0777,-0.54191 -0.0492,-0.61868 -0.34096,-1.16466 -0.67785,-1.6709 -0.35043,-0.5261 -0.72209,-0.96189 -0.70719,-1.62573 0.0163,-0.69817 0.50443,-1.41619 0.87157,-1.98701 0,0 2.13695,-3.116 2.13695,-3.116 0.36895,-0.49178 0.82506,-1.1484 1.41664,-1.37103 z m 5.14817,11.05907 c 0.48005,-0.0556 0.88919,0.26372 1.18544,0.60875 0.55591,0.64848 0.96595,1.40264 1.41935,2.12203 0,0 1.50562,2.30313 1.50562,2.30313 0,0 1.11001,1.62573 1.11001,1.62573 0.27999,0.46605 0.6923,1.17054 0.40463,1.71606 -0.15399,0.29263 -0.48953,0.44753 -0.793,0.54011 -0.42223,0.1287 -1.04724,0.18153 -1.49025,0.18244 0,0 -0.76772,0.0451 -0.76772,0.0451 -1.78424,0.003 -3.63397,0.12329 -5.19332,-0.90318 -0.48366,-0.31838 -1.11047,-0.75191 -1.24098,-1.35478 -0.0293,-0.13503 -0.0248,-0.3116 -0.0235,-0.4516 0.007,-0.60198 0.3938,-1.27936 0.66565,-1.80638 0,0 0.81061,-1.49025 0.81061,-1.49025 0,0 1.05493,-1.85153 1.05493,-1.85153 0.33779,-0.53288 0.70945,-1.11634 1.35251,-1.28569 z"
     style="fill:#000000;fill-opacity:1" />
</svg>
